<svg id="visual" viewBox="0 0 900 600" width="900" height="600" xmlns="http://www.w3.org/2000/svg" xmlns:xlink="http://www.w3.org/1999/xlink" version="1.1"><rect x="0" y="0" width="900" height="600" fill="#1d1825"></rect><path d="M0 209L21.5 213.8C43 218.7 86 228.3 128.8 227.8C171.7 227.3 214.3 216.7 257.2 203C300 189.3 343 172.7 385.8 167.5C428.7 162.3 471.3 168.7 514.2 171.7C557 174.7 600 174.3 642.8 178C685.7 181.7 728.3 189.3 771.2 187.7C814 186 857 175 878.5 169.5L900 164L900 0L878.5 0C857 0 814 0 771.2 0C728.3 0 685.7 0 642.8 0C600 0 557 0 514.2 0C471.3 0 428.7 0 385.8 0C343 0 300 0 257.2 0C214.3 0 171.7 0 128.8 0C86 0 43 0 21.5 0L0 0Z" fill="#3f3459"></path><path d="M0 196L21.5 196.7C43 197.3 86 198.7 128.8 198.2C171.7 197.7 214.3 195.3 257.2 189.8C300 184.3 343 175.7 385.8 167.8C428.7 160 471.3 153 514.2 147.7C557 142.3 600 138.7 642.8 142.2C685.7 145.7 728.3 156.3 771.2 153.7C814 151 857 135 878.5 127L900 119L900 0L878.5 0C857 0 814 0 771.2 0C728.3 0 685.7 0 642.8 0C600 0 557 0 514.2 0C471.3 0 428.7 0 385.8 0C343 0 300 0 257.2 0C214.3 0 171.7 0 128.8 0C86 0 43 0 21.5 0L0 0Z" fill="#3b3053"></path><path d="M0 131L21.5 130.2C43 129.3 86 127.7 128.8 126.5C171.7 125.3 214.3 124.7 257.2 122.3C300 120 343 116 385.8 116.3C428.7 116.7 471.3 121.3 514.2 122.5C557 123.7 600 121.3 642.8 118.3C685.7 115.3 728.3 111.7 771.2 108.2C814 104.7 857 101.3 878.5 99.7L900 98L900 0L878.5 0C857 0 814 0 771.2 0C728.3 0 685.7 0 642.8 0C600 0 557 0 514.2 0C471.3 0 428.7 0 385.8 0C343 0 300 0 257.2 0C214.3 0 171.7 0 128.8 0C86 0 43 0 21.5 0L0 0Z" fill="#372d4d"></path><path d="M0 68L21.5 67.5C43 67 86 66 128.8 74C171.7 82 214.3 99 257.2 99C300 99 343 82 385.8 78.8C428.7 75.7 471.3 86.3 514.2 90.5C557 94.7 600 92.3 642.8 90.7C685.7 89 728.3 88 771.2 86.7C814 85.3 857 83.7 878.5 82.8L900 82L900 0L878.5 0C857 0 814 0 771.2 0C728.3 0 685.7 0 642.8 0C600 0 557 0 514.2 0C471.3 0 428.7 0 385.8 0C343 0 300 0 257.2 0C214.3 0 171.7 0 128.8 0C86 0 43 0 21.5 0L0 0Z" fill="#332a47"></path><path d="M0 28L21.5 34C43 40 86 52 128.8 56.5C171.7 61 214.3 58 257.2 58.5C300 59 343 63 385.8 61.3C428.7 59.7 471.3 52.3 514.2 47.2C557 42 600 39 642.8 38.3C685.7 37.7 728.3 39.3 771.2 41.5C814 43.7 857 46.3 878.5 47.7L900 49L900 0L878.5 0C857 0 814 0 771.2 0C728.3 0 685.7 0 642.8 0C600 0 557 0 514.2 0C471.3 0 428.7 0 385.8 0C343 0 300 0 257.2 0C214.3 0 171.7 0 128.8 0C86 0 43 0 21.5 0L0 0Z" fill="#2f2741"></path></svg>