<svg id="visual" viewBox="0 0 900 600" width="900" height="600" xmlns="http://www.w3.org/2000/svg" xmlns:xlink="http://www.w3.org/1999/xlink" version="1.1"><rect x="0" y="0" width="900" height="600" fill="#1d1825"></rect><path d="M0 456L13.7 452.3C27.3 448.7 54.7 441.3 82 441.3C109.3 441.3 136.7 448.7 163.8 455.2C191 461.7 218 467.3 245.2 461.2C272.3 455 299.7 437 327 433.3C354.3 429.7 381.7 440.3 409 449.3C436.3 458.3 463.7 465.7 491 464C518.3 462.3 545.7 451.7 573 451C600.3 450.3 627.7 459.7 654.8 465C682 470.3 709 471.7 736.2 472.5C763.3 473.3 790.7 473.7 818 465.5C845.3 457.3 872.7 440.7 886.3 432.3L900 424L900 601L886.3 601C872.7 601 845.3 601 818 601C790.7 601 763.3 601 736.2 601C709 601 682 601 654.8 601C627.7 601 600.3 601 573 601C545.7 601 518.3 601 491 601C463.7 601 436.3 601 409 601C381.7 601 354.3 601 327 601C299.7 601 272.3 601 245.2 601C218 601 191 601 163.8 601C136.7 601 109.3 601 82 601C54.7 601 27.3 601 13.7 601L0 601Z" fill="#2f2741" stroke-linecap="round" stroke-linejoin="miter"></path></svg>