<svg id="visual" viewBox="0 0 900 600" width="900" height="600" xmlns="http://www.w3.org/2000/svg" xmlns:xlink="http://www.w3.org/1999/xlink" version="1.1"><rect x="0" y="0" width="900" height="600" fill="#1d1825"></rect><path d="M0 389L21.5 384.2C43 379.3 86 369.7 128.8 370.2C171.7 370.7 214.3 381.3 257.2 395C300 408.7 343 425.3 385.8 430.5C428.7 435.7 471.3 429.3 514.2 426.3C557 423.3 600 423.7 642.8 420C685.7 416.3 728.3 408.7 771.2 410.3C814 412 857 423 878.5 428.5L900 434L900 601L878.5 601C857 601 814 601 771.2 601C728.3 601 685.7 601 642.8 601C600 601 557 601 514.2 601C471.3 601 428.7 601 385.8 601C343 601 300 601 257.2 601C214.3 601 171.7 601 128.8 601C86 601 43 601 21.5 601L0 601Z" fill="#3f3459"></path><path d="M0 402L21.5 401.3C43 400.7 86 399.3 128.8 399.8C171.7 400.3 214.3 402.7 257.2 408.2C300 413.7 343 422.3 385.8 430.2C428.7 438 471.3 445 514.2 450.3C557 455.7 600 459.3 642.8 455.8C685.7 452.3 728.3 441.7 771.2 444.3C814 447 857 463 878.5 471L900 479L900 601L878.5 601C857 601 814 601 771.2 601C728.3 601 685.7 601 642.8 601C600 601 557 601 514.2 601C471.3 601 428.7 601 385.8 601C343 601 300 601 257.2 601C214.3 601 171.7 601 128.8 601C86 601 43 601 21.5 601L0 601Z" fill="#3b3053"></path><path d="M0 467L21.5 467.8C43 468.7 86 470.3 128.8 471.5C171.7 472.7 214.3 473.3 257.2 475.7C300 478 343 482 385.8 481.7C428.7 481.3 471.3 476.7 514.2 475.5C557 474.3 600 476.7 642.8 479.7C685.7 482.7 728.3 486.3 771.2 489.8C814 493.3 857 496.7 878.5 498.3L900 500L900 601L878.5 601C857 601 814 601 771.2 601C728.3 601 685.7 601 642.8 601C600 601 557 601 514.2 601C471.3 601 428.7 601 385.8 601C343 601 300 601 257.2 601C214.3 601 171.7 601 128.8 601C86 601 43 601 21.5 601L0 601Z" fill="#372d4d"></path><path d="M0 530L21.5 530.5C43 531 86 532 128.8 524C171.7 516 214.3 499 257.2 499C300 499 343 516 385.8 519.2C428.7 522.3 471.3 511.7 514.2 507.5C557 503.3 600 505.7 642.8 507.3C685.7 509 728.3 510 771.2 511.3C814 512.7 857 514.3 878.5 515.2L900 516L900 601L878.5 601C857 601 814 601 771.2 601C728.3 601 685.7 601 642.8 601C600 601 557 601 514.2 601C471.3 601 428.7 601 385.8 601C343 601 300 601 257.2 601C214.3 601 171.7 601 128.8 601C86 601 43 601 21.5 601L0 601Z" fill="#332a47"></path><path d="M0 570L21.5 564C43 558 86 546 128.8 541.5C171.7 537 214.3 540 257.2 539.5C300 539 343 535 385.8 536.7C428.7 538.3 471.3 545.7 514.2 550.8C557 556 600 559 642.8 559.7C685.7 560.3 728.3 558.7 771.2 556.5C814 554.3 857 551.7 878.5 550.3L900 549L900 601L878.5 601C857 601 814 601 771.2 601C728.3 601 685.7 601 642.8 601C600 601 557 601 514.2 601C471.3 601 428.7 601 385.8 601C343 601 300 601 257.2 601C214.3 601 171.7 601 128.8 601C86 601 43 601 21.5 601L0 601Z" fill="#2f2741"></path></svg>