<svg id="visual" viewBox="0 0 900 600" width="900" height="600" xmlns="http://www.w3.org/2000/svg" xmlns:xlink="http://www.w3.org/1999/xlink" version="1.1"><rect x="0" y="0" width="900" height="600" fill="#1d1825"></rect><path d="M0 143L21.5 153C43 163 86 183 128.8 184.7C171.7 186.3 214.3 169.7 257.2 150C300 130.3 343 107.7 385.8 115.7C428.7 123.7 471.3 162.3 514.2 162.5C557 162.7 600 124.3 642.8 105.7C685.7 87 728.3 88 771.2 99.3C814 110.7 857 132.3 878.5 143.2L900 154L900 0L878.5 0C857 0 814 0 771.2 0C728.3 0 685.7 0 642.8 0C600 0 557 0 514.2 0C471.3 0 428.7 0 385.8 0C343 0 300 0 257.2 0C214.3 0 171.7 0 128.8 0C86 0 43 0 21.5 0L0 0Z" fill="#2f2741" stroke-linecap="round" stroke-linejoin="miter"></path></svg>